HIERARCHY
ROOT Hip
{
	OFFSET 0 0 0
	CHANNELS 6 Xposition Yposition Zposition Zrotation Yrotation Xrotation
	JOINT ShoulderCenter
	{
		OFFSET 0 0.4363 0
		CHANNELS 3 Zrotation Yrotation Xrotation
		JOINT Head
		{
			OFFSET 0 0.1849 0
			CHANNELS 3 Zrotation Yrotation Xrotation
			End Site
			{
				OFFSET 0.0 0.0891 0.0
			}
		}
		JOINT ShoulderLeft
		{
			OFFSET -0.14 0 0
			CHANNELS 3 Zrotation Yrotation Xrotation
			JOINT ElbowLeft
			{
				OFFSET -0.25 0 0
				CHANNELS 3 Zrotation Yrotation Xrotation
				JOINT WristLeft
				{
					OFFSET -0.23 0 0
					CHANNELS 3 Zrotation Yrotation Xrotation
					End Site
					{
						OFFSET -0.0832 0.0 0.0
					}
				}
			}
		}
		JOINT ShoulderRight
		{
			OFFSET 0.14 0 0
			CHANNELS 3 Zrotation Yrotation Xrotation
			JOINT ElbowRight
			{
				OFFSET 0.25 0 0
				CHANNELS 3 Zrotation Yrotation Xrotation
				JOINT WristRight
				{
					OFFSET 0.23 0 0
					CHANNELS 3 Zrotation Yrotation Xrotation
					End Site
					{
						OFFSET 0.0832 0.0 0.0
					}
				}
			}
		}
	}
	JOINT HipLeft
	{
		OFFSET -0.0952 0 0
		CHANNELS 3 Zrotation Yrotation Xrotation
		JOINT KneeLeft
		{
			OFFSET 0 -0.3732 0
			CHANNELS 3 Zrotation Yrotation Xrotation
			JOINT AnkleLeft
			{
				OFFSET 0 -0.346 0
				CHANNELS 3 Zrotation Yrotation Xrotation
				End Site
				{
					OFFSET 0.0 0.0 0.0891
				}
			}
		}
	}
	JOINT HipRight
	{
		OFFSET 0.0952 0 0
		CHANNELS 3 Zrotation Yrotation Xrotation
		JOINT KneeRight
		{
			OFFSET 0 -0.3732 0
			CHANNELS 3 Zrotation Yrotation Xrotation
			JOINT AnkleRight
			{
				OFFSET 0 -0.346 0
				CHANNELS 3 Zrotation Yrotation Xrotation
				End Site
				{
					OFFSET 0.0 0.0 0.0891
				}
			}
		}
	}
}
MOTION
Frames: 22
Frame Time: 0.033333
0.000105287 -2.32212e-05 -0.00231169 0.740851 -3.77193 -6.15751 -0.928104 -3.31105 -3.56373 0 0 0 80.1196 -3.65144 49.3141 -8.13009e-06 23.5522 -3.43918e-06 0 0 0 0 0 0 0 0 0 0 0 0 1.35417 0.146738 5.54805 -5.38979 -0.187191 -2.69823 0 0 0 -0.910552 1.25718 5.27277 -4.8327 -2.38983 -22.1376 5.33609e-08 8.01351e-16 -1.72089e-06 
0.000106306 -2.32212e-05 -0.00231039 0.857083 -3.35379 -6.34587 -1.10515 -3.71006 -3.36768 0 -3.33505e-09 0 80.1381 -3.55533 48.7765 1.6732e-05 23.7591 1.77483e-06 0 0 0 0 0 0 0 0 0 0 0 0 1.01569 0.310775 5.95503 -4.86533 -0.564169 -8.73152 0 0 0 -1.51474 1.18994 5.59044 -4.25683 -2.38041 -22.2207 0 0 0 
0.000106348 -2.34578e-05 -0.00231039 0.861702 -3.34437 -6.34198 -1.09362 -3.68202 -3.52534 0 0 0 80.2138 -3.56881 49.6447 1.14402e-06 23.615 5.47253e-06 0 0 0 0 0 0 0 0 0 0 0 0 0.970181 -0.0783079 5.96069 -0.365391 0.216642 -14.8874 -2.66804e-08 0 0 -1.53578 1.19076 5.57933 -4.24081 -2.39446 -22.1791 0 0 0 
0.000106348 -2.34578e-05 -0.00231039 0.884186 -3.35137 -6.36248 -1.15404 -3.65377 -3.50359 0 0 8.53774e-07 80.3134 -3.594 49.7891 -1.89996e-06 23.551 -3.88458e-06 0 0 0 0 0 0 0 0 0 0 0 0 0.949646 -0.069669 5.97983 -0.360457 0.194437 -14.8872 -1.33402e-07 -3.88251e-18 -3.33505e-09 -1.59638 0.826241 5.59827 -4.35192 -1.64137 -15.2883 0 0 0 
0.000106306 -2.34578e-05 -0.00231045 0.891359 -3.37725 -6.37205 -1.16354 -3.66012 -3.51505 0 0 0 80.3636 -3.58184 51.7058 4.36147e-06 22.7609 4.36147e-06 0 0 0 0 0 0 0 0 0 0 0 0 0.934931 -0.146129 6.02087 0.180821 0.340517 -14.9669 0 0 0 -1.60704 0.692342 5.6189 -3.88564 -1.37256 -13.9822 0 0 0 
0.000105935 -2.32274e-05 -0.00231356 1.05054 -4.47332 -6.16705 -1.04863 -2.76982 -4.06255 0 0 0 80.4465 -3.60961 52.3486 -9.59472e-06 22.4593 -8.86848e-06 0 0 3.41509e-06 0 0 0 0 0 0 0 0 0 0.62218 -0.256721 5.34082 1.36098 0.540768 -14.0364 0 0 1.70755e-06 -1.75244 0.60676 5.09043 -3.32943 -1.25684 -13.9399 0 0 0 
0.000105922 -2.32274e-05 -0.00231442 1.03981 -4.1194 -6.15287 -1.06196 -3.22332 -3.97235 0 0 0 80.6094 -3.58269 51.3771 -7.34499e-06 22.5621 2.76039e-07 0 0 0 0 0 0 0 0 0 0 0 0 0.637065 -0.245466 5.3198 1.25639 0.521887 -14.021 0 0 0 -1.75979 0.584266 4.99031 -3.27568 -1.21233 -13.645 0 0 0 
0.000105901 -2.32274e-05 -0.00231455 1.03585 -4.12256 -6.13428 -1.05576 -3.2258 -3.99598 0 0 0 80.623 -3.61489 51.4514 -1.00647e-05 22.5532 -2.65683e-07 0 0 0 0 0 0 0 0 0 0 0 0 0.654492 -0.243998 5.29763 1.2392 0.520408 -14.0114 0 0 0 -1.73233 0.518713 4.95784 -2.78864 -1.09945 -13.8045 0 0 0 
0.000105418 -2.33235e-05 -0.00231578 0.988504 -4.28593 -6.02121 -1.02016 -3.06766 -4.04511 0 0 0 80.6992 -3.54958 51.5602 7.15475e-06 22.4366 3.15986e-06 0 0 0 0 0 0 0 0 0 0 0 0 0.857856 -0.251896 5.14861 1.06409 0.565665 -14.2545 0 0 0 -1.57084 0.577788 4.64956 -3.41172 -1.1968 -13.9094 4.26887e-07 0 0 
0.000105359 -2.35802e-05 -0.0023174 1.02084 -4.1771 -6.01732 -1.22935 -3.07952 -3.81728 0 0 0 80.9286 -3.47164 50.9253 5.88735e-06 22.3761 1.16445e-06 0 0 0 0 0 0 0 0 0 0 0 0 0.857451 -0.249369 5.08815 0.998351 0.56915 -14.262 0 0 0 -1.5444 0.557975 4.54791 -3.31443 -1.15892 -14.0642 0 0 0 
0.000104913 -2.35812e-05 -0.00231767 0.957955 -4.09036 -6.01489 -1.23812 -3.12383 -3.79234 0 0 0 80.9924 -3.43703 50.8706 0.10693 22.1356 0.0333238 -4.26887e-07 0 0 0 0 0 0 0 0 0 0 0 0.993528 -0.295918 5.09197 1.28147 0.664605 -14.3449 2.48481e-17 4.26887e-07 6.67011e-09 -1.37683 0.547684 4.54111 -3.23643 -1.13614 -14.3411 6.36111e-15 4.26887e-07 1.70755e-06 
0.000104851 -2.36799e-05 -0.00231773 0.965343 -4.08459 -6.0272 -1.29002 -3.14851 -3.99472 0 0 0 81.0212 -3.79454 50.542 -1.1791e-06 22.6187 4.98827e-06 0 0 0 0 0 0 0 0 0 0 0 0 1.00606 -0.293171 5.08782 1.26111 0.659612 -14.3367 0 0 1.71422e-06 -1.37514 0.555282 4.52653 -3.23859 -1.15482 -14.5285 0 0 0 
0.000104605 -2.37909e-05 -0.00231808 0.943929 -4.14615 -6.06745 -1.27818 -3.21154 -3.85642 5.33609e-08 -3.97569e-16 8.53774e-07 81.1045 -3.47053 50.7309 9.30977e-08 22.4692 -1.72242e-06 0 0 0 0 0 0 0 0 0 0 0 0 1.22455 -0.362713 5.13502 1.55098 0.816983 -15.1314 0 5.33608e-08 0 -1.18654 0.587532 4.5687 -3.48536 -1.20047 -14.6231 0 0 1.70755e-06 
0.000104531 -2.37909e-05 -0.0023181 0.939126 -4.19716 -6.07495 -1.26483 -3.19342 -3.87302 0 0 0 81.1269 -3.45717 50.6715 -1.31399e-05 22.5485 -1.13252e-05 4.26887e-07 2.56132e-06 1.70755e-06 0 0 0 0 0 0 0 0 0 1.24332 -0.36522 5.12867 1.5554 0.823967 -15.1619 -2.13443e-07 3.73526e-07 1.33402e-08 -1.16983 0.587761 4.58084 -3.47968 -1.20009 -14.6728 4.26887e-07 -6.36111e-15 1.70755e-06 
0.000104531 -2.38195e-05 -0.00231816 0.955336 -4.34415 -6.08167 -1.2804 -3.02324 -3.85642 0 0 0 81.1908 -3.44228 49.4925 3.13244e-07 22.9045 -1.67878e-06 0 0 0 0 0 0 0 0 0 0 0 0 1.30957 -0.254386 5.07113 0.77445 0.621449 -15.2126 0 0 0 -1.18131 0.581624 4.54324 -3.4357 -1.19399 -14.6091 3.73526e-07 -5.56597e-15 1.70755e-06 
0.000104531 -2.40059e-05 -0.00231833 0.940618 -4.41843 -6.10449 -1.23371 -2.89767 -3.88277 0 0 0 81.1936 -3.50034 50.2024 4.35419e-06 22.6336 4.35419e-06 0 0 0 0 0 0 0 0 0 0 0 0 1.36879 -0.226834 5.08022 0.701916 0.546925 -14.7532 0 0 0 -1.21812 0.583272 4.55681 -3.3103 -1.22204 -14.6187 7.95139e-16 5.33609e-08 1.70755e-06 
0.000104698 -2.44143e-05 -0.00231937 0.919764 -4.71875 -6.1797 -1.18251 -2.69882 -3.89854 0 0 0 81.1418 -3.50901 50.1898 1.47584e-05 23.1174 8.24706e-06 0 0 0 0 0 0 0 0 0 0 0 0 1.56647 -0.215324 5.02206 0.490215 0.542796 -14.6276 0 0 0 -1.24335 0.589849 4.58021 -3.2219 -1.24525 -15.1047 -4.96962e-17 -4.26887e-07 1.33402e-08 
0.000104805 -2.44311e-05 -0.00232032 0.913715 -4.56527 -6.12198 -1.24987 -2.81822 -3.86182 0 0 0 81.1302 -3.45177 49.7129 -1.4449e-06 23.5707 -3.79011e-06 0 0 0 0 0 0 0 0 0 0 0 0 1.56984 -0.206946 4.88908 0.448367 0.532314 -14.5112 -2.13443e-07 0 0 -1.2469 0.681915 4.39468 -3.85902 -1.41055 -15.0447 0 0 0 
0.000104805 -2.49281e-05 -0.00232159 0.826118 -4.62255 -6.08617 -1.12389 -2.68125 -3.91467 0 0 0 81.0847 -3.49014 52.1403 -6.47154e-07 22.8516 -5.35701e-06 0 0 0 0 0 0 0 0 0 0 0 0 1.66261 -0.326202 4.71472 1.30909 0.772765 -14.3191 0 0 0 -1.12884 0.732936 4.18906 -4.30901 -1.48512 -14.9141 0 0 0 
0.000104805 -2.49281e-05 -0.00232203 0.777582 -4.56934 -6.07315 -1.05056 -2.77549 -3.84527 0 0 0 81.1584 -3.39731 52.1596 0.237909 22.1152 0.110678 0 0 0 0 0 0 0 0 0 0 0 0 1.62494 -0.340935 4.72776 1.45689 0.794507 -14.4009 0 0 1.72089e-06 -1.07326 0.725681 4.23152 -4.21274 -1.47414 -15.091 0 0 0 
0.000105223 -2.49281e-05 -0.00232244 0.859603 -4.83549 -6.05237 -1.13535 -2.66831 -3.89794 0 0 0 81.3238 -3.35697 52.3167 -0.02065 22.2309 0.0326609 0 0 0 0 0 0 0 0 0 0 0 0 1.74413 -0.350034 4.57472 1.44115 0.83559 -14.2491 0 0 0 -1.07813 0.750264 4.17611 -4.41456 -1.50568 -15.085 0 0 0 
0.000105345 -2.49184e-05 -0.0023242 0.526461 -5.66114 -6.05266 -0.369862 -1.96515 -3.76472 0 0 0 81.0353 -3.19771 52.3992 -0.748405 22.2842 -0.234828 0 3.41509e-06 0 0 0 0 0 0 0 0 0 0 2.13825 -0.362841 4.17883 1.47411 0.907961 -13.9551 0 0 0 -0.688899 0.823637 4.27561 -4.84926 -1.58971 -15.5789 0 0 0 
